<?xml version="1.0" standalone="no"?>
<!DOCTYPE svg PUBLIC "-//W3C//DTD SVG 20010904//EN"
 "http://www.w3.org/TR/2001/REC-SVG-20010904/DTD/svg10.dtd">
<svg version="1.0" xmlns="http://www.w3.org/2000/svg"
 width="499.000000pt" height="499.000000pt" viewBox="0 0 499.000000 499.000000"
 preserveAspectRatio="xMidYMid meet">

<g transform="translate(0.000000,499.000000) scale(0.100000,-0.100000)"
fill="#000000" stroke="none">
<path d="M3667 4604 c-4 -4 -7 -20 -7 -36 0 -23 4 -28 24 -28 49 0 64 62 16
68 -14 2 -29 0 -33 -4z"/>
<path d="M2960 4565 c-32 -34 -24 -69 18 -73 41 -4 62 12 62 49 0 46 -46 60
-80 24z"/>
<path d="M1127 4554 c-25 -25 8 -70 43 -59 32 10 24 59 -10 63 -14 2 -29 0
-33 -4z"/>
<path d="M2386 4533 c-4 -11 -1 -11 15 -3 11 6 29 8 39 5 12 -4 20 -2 20 5 0
15 -68 9 -74 -7z"/>
<path d="M2425 4519 c-4 -6 -4 -13 -1 -16 3 -4 6 -1 6 6 0 7 5 9 12 5 7 -4 8
-3 4 4 -9 15 -13 15 -21 1z"/>
<path d="M3485 4399 c-4 -5 -3 -18 0 -29 5 -16 10 -18 25 -10 21 11 17 35 -5
44 -8 3 -17 1 -20 -5z"/>
<path d="M1296 4345 c-26 -27 -29 -56 -8 -84 47 -64 138 -17 111 57 -14 37
-76 54 -103 27z"/>
<path d="M1936 4304 c-21 -21 -20 -30 1 -13 10 8 14 9 10 2 -4 -6 -3 -14 2
-17 5 -3 12 1 15 10 5 13 9 14 21 4 22 -18 29 -6 10 14 -21 20 -39 20 -59 0z"/>
<path d="M1972 4286 c13 -15 -15 -35 -36 -24 -13 7 -16 7 -12 -1 4 -6 2 -11
-4 -11 -6 0 -8 -4 -5 -10 3 -5 11 -10 16 -10 6 0 7 5 3 12 -5 7 -2 9 7 6 8 -3
25 0 38 6 21 12 22 13 4 26 -10 8 -15 11 -11 6z"/>
<path d="M1986 4225 c-10 -8 -22 -12 -27 -10 -4 3 -10 1 -14 -5 -12 -19 32
-10 50 10 21 23 18 25 -9 5z"/>
<path d="M3257 4051 c-34 -33 -82 -84 -107 -115 -25 -30 -51 -55 -58 -56 -8 0
-50 13 -95 29 -159 55 -419 86 -594 71 -257 -23 -467 -95 -658 -228 -269 -187
-436 -364 -559 -594 -45 -85 -54 -120 -37 -146 5 -9 7 2 5 27 -1 24 1 39 7 36
5 -4 9 -16 9 -28 0 -12 5 -29 11 -37 7 -11 8 -5 3 22 -3 21 -1 44 5 55 10 15
10 14 5 -9 -8 -37 2 -63 26 -65 11 -1 20 2 20 8 0 5 5 9 11 9 5 0 7 -5 3 -12
-4 -7 -3 -8 4 -4 6 4 9 13 5 21 -3 8 -1 15 4 15 9 0 49 61 46 71 -1 4 9 17 22
29 14 13 25 28 25 33 0 5 12 24 28 42 15 18 34 42 42 53 85 113 216 231 360
326 202 134 349 185 600 211 222 22 450 -8 609 -82 149 -68 265 -147 372 -254
61 -60 116 -124 128 -150 l22 -44 -32 35 c-103 114 -131 140 -199 191 -152
115 -274 170 -473 215 -313 72 -700 -1 -955 -179 -75 -52 -214 -185 -202 -192
5 -3 6 -13 3 -21 -5 -13 -8 -13 -15 -2 -8 10 -11 10 -15 0 -2 -6 -10 -9 -15
-6 -7 4 -8 2 -4 -4 3 -6 -2 -16 -13 -22 -17 -9 -19 -14 -10 -38 6 -15 10 -29
10 -32 0 -3 7 -4 15 -2 17 4 18 -10 2 -26 -9 -9 -9 -12 0 -12 7 0 12 -7 12
-15 0 -18 17 -20 23 -2 2 6 7 10 10 7 16 -15 -19 -35 -67 -39 -6 -1 -6 -5 0
-11 12 -12 62 10 89 41 15 15 16 22 7 28 -10 6 -10 10 1 20 12 9 15 9 13 -1 0
-7 4 -13 9 -13 6 0 9 3 7 8 -1 4 1 6 5 5 11 -4 73 35 73 45 0 4 4 6 9 3 8 -6
60 35 146 115 181 169 361 240 610 241 89 1 142 -4 205 -20 150 -37 219 -71
368 -184 57 -44 131 -92 165 -108 88 -40 197 -81 229 -84 39 -4 49 -15 100
-118 95 -189 125 -341 143 -723 9 -182 32 -346 59 -419 35 -93 76 -170 86
-160 26 27 39 563 20 796 -23 275 -118 563 -250 759 -99 145 -224 276 -350
364 -96 67 -110 79 -110 91 0 6 41 51 91 100 84 83 119 128 119 154 0 14 -62
40 -96 40 -18 0 -44 -18 -87 -59z"/>
<path d="M1467 4072 c-10 -10 -17 -24 -17 -30 0 -13 188 -212 201 -212 4 0 20
10 35 23 33 29 33 29 -78 146 -89 94 -112 106 -141 73z"/>
<path d="M3905 3840 c-30 -13 -235 -224 -235 -242 0 -17 58 -78 75 -78 15 0
258 217 269 240 15 32 -1 67 -35 79 -37 13 -47 13 -74 1z"/>
<path d="M968 3743 c-6 -8 -8 -16 -4 -20 3 -3 6 -2 6 4 0 6 13 9 30 7 16 -2
32 2 36 8 4 7 3 8 -4 4 -7 -4 -12 -3 -12 1 0 14 -40 10 -52 -4z"/>
<path d="M2435 3544 c-150 -35 -220 -63 -303 -123 -52 -39 -126 -136 -162
-216 -15 -33 -33 -65 -41 -71 -8 -6 -49 -21 -92 -33 -98 -29 -323 -37 -336
-13 -6 10 -10 11 -15 3 -4 -6 -2 -11 3 -11 6 0 11 -7 11 -16 0 -11 -6 -14 -20
-9 -23 7 -28 -13 -5 -21 18 -7 19 -37 4 -66 -9 -16 -8 -24 4 -36 14 -13 13
-17 -5 -32 -15 -12 -18 -19 -9 -24 6 -4 10 -3 9 4 -2 7 8 16 22 21 24 9 24 8
6 -6 -11 -8 -15 -15 -9 -15 7 0 18 7 26 15 9 8 17 11 19 6 2 -6 21 -6 48 -1
25 5 95 16 155 25 61 10 133 26 160 36 28 10 51 19 53 19 8 0 0 -143 -9 -164
-12 -26 -35 -33 -161 -55 -31 -6 -74 -19 -95 -30 -58 -29 -155 -104 -183 -140
-14 -18 -35 -45 -47 -60 -51 -64 -87 -145 -88 -196 0 -35 5 -52 15 -57 12 -5
12 -7 -2 -7 -22 -1 -24 -31 -3 -31 12 0 14 -6 8 -27 -8 -28 -8 -99 0 -158 2
-16 5 -50 6 -75 1 -32 4 -41 11 -30 5 8 7 25 3 37 -4 17 -1 23 12 23 14 0 16
8 13 58 -3 31 -1 95 5 141 10 95 46 171 129 277 82 106 136 137 280 165 115
22 166 47 194 92 16 27 20 59 25 197 6 200 21 249 104 339 100 108 221 149
404 138 53 -3 119 -13 147 -21 67 -21 164 -84 244 -161 66 -63 127 -107 190
-136 233 -110 262 -136 306 -274 23 -71 26 -96 25 -220 -1 -277 -71 -412 -270
-524 -48 -27 -131 -65 -186 -86 -55 -20 -116 -45 -136 -56 -51 -26 -123 -109
-161 -187 l-33 -67 0 -625 0 -625 93 -3 92 -3 0 178 c0 98 3 188 6 200 6 20
11 18 81 -38 121 -96 181 -120 298 -120 106 0 180 28 235 88 l41 44 -7 94 c-9
130 -6 139 66 172 33 15 62 34 65 43 3 9 -2 36 -10 60 -8 23 -15 51 -15 62 0
28 28 78 45 78 19 0 35 31 35 67 0 31 27 77 56 98 11 7 38 18 61 24 31 8 44
18 53 42 16 37 12 47 -73 177 -177 270 -213 366 -227 622 -30 507 -60 658
-146 744 -16 16 -92 59 -169 96 -113 55 -156 82 -220 139 -128 113 -225 183
-300 215 -63 27 -82 30 -190 32 -66 2 -129 1 -140 -2z m820 -1856 c55 -43 70
-129 35 -198 -33 -65 -119 -91 -176 -54 -35 23 -74 94 -74 135 0 107 135 180
215 117z"/>
<path d="M2505 3282 c-77 -8 -156 -44 -209 -96 -74 -72 -107 -140 -113 -236
-8 -112 8 -168 66 -230 49 -52 80 -62 115 -37 17 13 16 16 -13 58 -44 63 -66
156 -52 220 15 70 34 102 84 143 66 54 190 66 290 27 47 -18 112 -92 126 -143
17 -61 10 -162 -14 -213 -29 -60 -101 -125 -192 -173 -160 -84 -166 -85 -468
-91 -252 -6 -273 -8 -315 -28 -51 -26 -118 -87 -161 -150 -56 -81 -59 -112
-59 -626 0 -323 3 -475 11 -489 6 -11 13 -57 15 -101 3 -60 11 -95 30 -135 17
-36 29 -51 34 -43 5 9 9 8 14 -4 3 -9 4 -21 0 -26 -3 -5 -1 -9 4 -9 16 0 18
68 21 685 2 662 1 648 74 731 64 72 72 74 354 74 136 0 268 5 293 11 63 14
225 93 288 140 28 22 52 35 52 29 0 -27 -56 -117 -98 -159 -26 -25 -93 -76
-148 -113 -56 -38 -128 -96 -160 -131 -61 -64 -158 -231 -215 -366 l-29 -70 4
-603 c2 -332 7 -624 11 -650 l7 -48 49 0 49 0 1 288 c1 158 2 457 3 664 l3
377 32 63 c96 183 220 329 337 397 210 123 271 206 276 377 l3 89 49 33 c41
27 57 32 109 32 75 0 116 -25 148 -88 18 -38 21 -55 16 -121 -7 -98 -20 -140
-60 -193 -64 -83 -194 -142 -306 -137 -66 3 -174 -35 -206 -73 -14 -16 -52
-83 -85 -149 -32 -66 -72 -138 -88 -162 -63 -91 -62 -75 -62 -767 l0 -630 54
0 c40 0 55 4 60 16 3 9 6 302 6 653 l0 637 29 46 c72 114 202 278 223 283 13
3 73 14 133 25 69 13 133 31 171 50 80 39 166 129 206 217 28 59 32 81 36 174
4 93 1 112 -18 158 -43 100 -157 169 -296 178 -56 4 -76 2 -96 -11 l-26 -17
-4 103 c-3 90 -7 109 -30 149 -71 121 -230 204 -363 191z"/>
<path d="M877 3130 c-9 -36 2 -48 55 -61 47 -11 52 -10 65 7 7 10 12 23 10 29
-5 14 -51 35 -91 42 -28 4 -34 2 -39 -17z"/>
<path d="M2499 2997 c-66 -44 -70 -138 -9 -199 23 -23 37 -28 75 -28 40 0 52
5 80 33 61 61 53 154 -17 197 -43 26 -87 25 -129 -3z"/>
<path d="M1326 2852 c-3 -5 1 -9 9 -9 8 0 12 4 9 9 -3 4 -7 8 -9 8 -2 0 -6 -4
-9 -8z"/>
<path d="M4631 2806 c-7 -8 -11 -32 -9 -52 2 -30 9 -42 31 -54 24 -13 30 -13
55 0 31 18 39 66 15 100 -17 24 -74 27 -92 6z"/>
<path d="M4091 2771 c-35 -5 -58 -13 -67 -26 -14 -19 -10 -51 7 -70 12 -12
489 -20 505 -8 5 4 8 29 6 54 l-4 46 -51 7 c-65 7 -323 5 -396 -3z"/>
<path d="M763 2279 c1 -6 -4 -14 -12 -17 -10 -3 -11 0 -5 9 6 11 4 11 -12 -1
-10 -8 -20 -15 -22 -16 -1 -1 4 -7 13 -14 13 -11 14 -10 8 6 -6 16 -4 17 9 6
13 -10 17 -10 22 4 4 9 13 14 21 10 8 -3 15 -1 15 3 0 5 -7 12 -16 15 -22 8
-24 8 -21 -5z"/>
<path d="M2005 2223 c-10 -98 -29 -159 -82 -275 l-48 -103 -5 -525 c-3 -289
-4 -555 -1 -592 l4 -68 53 0 54 0 2 573 3 572 26 50 c14 28 40 79 59 114 29
57 34 77 40 174 10 145 9 147 -50 147 l-48 0 -7 -67z"/>
<path d="M770 2250 c0 -5 5 -10 10 -10 6 0 10 5 10 10 0 6 -4 10 -10 10 -5 0
-10 -4 -10 -10z"/>
<path d="M1432 1955 c0 -16 2 -22 5 -12 2 9 2 23 0 30 -3 6 -5 -1 -5 -18z"/>
<path d="M4171 1786 c-9 -10 -8 -15 5 -20 11 -4 14 -13 10 -30 -6 -23 -3 -25
38 -31 59 -9 80 -4 84 21 2 16 -4 24 -25 32 -15 5 -44 17 -65 26 -30 13 -38
13 -47 2z"/>
<path d="M4552 1708 c-14 -14 -16 -57 -4 -75 14 -22 67 -27 85 -8 21 21 22 59
1 79 -18 19 -65 21 -82 4z"/>
<path d="M1591 1184 c0 -11 3 -14 6 -6 3 7 2 16 -1 19 -3 4 -6 -2 -5 -13z"/>
<path d="M1591 1124 c0 -11 3 -14 6 -6 3 7 2 16 -1 19 -3 4 -6 -2 -5 -13z"/>
<path d="M4294 835 c-4 -8 -3 -23 0 -32 6 -15 8 -15 16 -3 6 9 6 16 0 18 -5 2
-6 10 -3 18 3 8 2 14 -1 14 -4 0 -9 -7 -12 -15z"/>
<path d="M4210 744 c0 -8 -4 -12 -10 -9 -5 3 -10 -1 -10 -9 0 -23 38 -40 55
-26 14 12 9 40 -9 52 -17 12 -26 9 -26 -8z m25 -23 c3 -5 2 -12 -3 -15 -5 -3
-9 1 -9 9 0 17 3 19 12 6z"/>
</g>
</svg>
